<svg id="Layer_1" data-name="Layer 1" xmlns="http://www.w3.org/2000/svg" viewBox="0 0 80 110"><defs><style>.cls-1{fill:#7488a5;}.cls-1,.cls-2{stroke:#7488a5;stroke-miterlimit:10;stroke-width:2px;}.cls-2{fill:#b2bbcc;}</style></defs><title>Artboard 1</title><path class="cls-1" d="M10.49,94.2,24.05,16.13l25.58.05a48.9,48.9,0,0,1,9.73,1.18A23.9,23.9,0,0,1,67.7,20.9a17,17,0,0,1,5.6,6.43,18.7,18.7,0,0,1,1.64,9.76A18.6,18.6,0,0,1,73.63,43a18.33,18.33,0,0,1-2.87,4.77,20.07,20.07,0,0,1-4.18,3.75,31.18,31.18,0,0,1-5.31,2.87A12.76,12.76,0,0,1,65.75,57a14.55,14.55,0,0,1,3,3.89,15.92,15.92,0,0,1,1.64,4.77,22.06,22.06,0,0,1,.29,5.2,24.29,24.29,0,0,1-3,10.72,22.25,22.25,0,0,1-6.73,7.27A28.54,28.54,0,0,1,51.54,93a44.66,44.66,0,0,1-11,1.23Zm21.66-34-3.7,21.07,12.39.05a19.27,19.27,0,0,0,5-.64,14.1,14.1,0,0,0,4.34-2,12.21,12.21,0,0,0,3.27-3.3,11.51,11.51,0,0,0,1.77-4.72q.75-4.83-1.31-7.53T47,60.26Zm1.93-11.37,10.67.11a22.27,22.27,0,0,0,4.91-.64A14.77,14.77,0,0,0,54,46.5a10.82,10.82,0,0,0,5-7.8,10.48,10.48,0,0,0-.16-4.42A5.79,5.79,0,0,0,57,31.38a8.53,8.53,0,0,0-3.3-1.61,19.11,19.11,0,0,0-4.37-.56l-11.8-.05Z"/><path class="cls-2" d="M6.49,90.2,20.05,12.13l25.58.05a48.9,48.9,0,0,1,9.73,1.18A23.9,23.9,0,0,1,63.7,16.9a17,17,0,0,1,5.6,6.43,18.7,18.7,0,0,1,1.64,9.76A18.6,18.6,0,0,1,69.63,39a18.33,18.33,0,0,1-2.87,4.77,20.07,20.07,0,0,1-4.18,3.75,31.18,31.18,0,0,1-5.31,2.87A12.76,12.76,0,0,1,61.75,53a14.55,14.55,0,0,1,3,3.89,15.92,15.92,0,0,1,1.64,4.77,22.06,22.06,0,0,1,.29,5.2,24.29,24.29,0,0,1-3,10.72,22.25,22.25,0,0,1-6.73,7.27A28.54,28.54,0,0,1,47.54,89a44.66,44.66,0,0,1-11,1.23Zm21.66-34-3.7,21.07,12.39.05a19.27,19.27,0,0,0,5-.64,14.1,14.1,0,0,0,4.34-2,12.21,12.21,0,0,0,3.27-3.3,11.51,11.51,0,0,0,1.77-4.72q.75-4.83-1.31-7.53T43,56.26Zm1.93-11.37,10.67.11a22.27,22.27,0,0,0,4.91-.64A14.77,14.77,0,0,0,50,42.5a10.82,10.82,0,0,0,5-7.8,10.48,10.48,0,0,0-.16-4.42A5.79,5.79,0,0,0,53,27.38a8.53,8.53,0,0,0-3.3-1.61,19.11,19.11,0,0,0-4.37-.56l-11.8-.05Z"/></svg>